<svg width="172" height="106" viewBox="0 0 172 106" fill="none" xmlns="http://www.w3.org/2000/svg">
<g id="brand-onkey">
<mask id="mask0_2487_1069" style="mask-type:alpha" maskUnits="userSpaceOnUse" x="0" y="0" width="172" height="106">
<path id="Vector" d="M21.8798 55.9664C21.0382 56.7857 19.767 58.351 19.4513 60.4971C19.0984 62.2935 19.3555 64.4837 21.1929 66.8097C20.2485 69.6607 18.9623 72.3207 17.2793 74.8197C16.5039 75.9735 15.4713 77.0334 14.3543 77.8697C12.5651 79.218 10.6323 78.4664 10.0441 76.3189C9.85717 75.6444 9.76168 74.9079 9.81624 74.2172C10.3163 68.0297 12.4142 62.4334 16.1072 57.4433C16.5924 56.7932 17.2204 56.2308 17.8563 55.7238C19.4545 54.4713 21.064 54.6065 21.9645 55.882L21.8798 55.9664ZM101.175 21.1146C102.707 18.6308 104.35 16.272 105.941 14.5339C107.514 12.7962 109.06 11.734 110.193 11.6458H110.214C110.328 11.653 110.619 11.7085 110.817 11.8663C111.016 12.0242 111.21 12.2372 111.221 12.8966C111.228 13.5823 110.935 14.7466 109.979 16.5067L109.968 16.5181L109.965 16.5308L109.92 16.617C109.461 17.499 105.448 24.8403 95.1012 32.5C96.3468 29.8673 98.5957 25.311 101.175 21.1146ZM121.682 55.8854C122.454 55.3584 123.968 55.0665 124.629 55.4777C125.276 55.8782 125.57 57.3626 125.485 58.3145C125.07 62.7477 120.209 66.2734 115.19 65.7882C116.487 61.8637 118.217 58.2756 121.682 55.8854ZM171.417 51.1858C171.417 51.1858 171.409 51.1934 171.405 51.1934C171.417 51.0993 171.417 51.0042 171.405 50.9101L171.42 50.8866C171.4 50.757 171.36 50.6313 171.302 50.5137C171.299 50.5027 171.295 50.4951 171.292 50.4841C170.638 49.1503 167.794 49.0398 167.794 49.0398L167.79 49.0456C164.729 48.8178 161.198 50.4142 160.062 53.1186C157.365 59.56 153.746 65.4318 149.098 70.6474C147.54 72.3988 145.872 74.0791 143.446 74.6653C142.37 74.9282 141.793 74.6069 142.046 73.4566C142.3 72.2914 142.568 71.103 143.027 70.0101C145.827 63.326 148.69 56.6719 151.512 49.9989C152.17 48.4416 151.751 47.6442 150.159 47.2303C146.878 46.3815 142.891 48.2019 141.506 51.2706C140.896 52.6372 140.272 53.995 139.647 55.3584C139.21 56.3132 138.777 57.2703 138.35 58.2297C137.784 59.6335 137.215 60.9379 136.637 62.1501C136.589 62.2569 136.542 62.3637 136.498 62.4665H136.49L136.465 62.494C136.387 62.6612 136.307 62.808 136.23 62.9734L136.237 62.9624C136.237 62.9624 134.223 67.4328 130.81 71.4962C130.773 71.5386 130.74 71.5827 130.703 71.6262C130.456 71.9162 130.203 72.2006 129.943 72.4792C129.939 72.4864 129.931 72.4937 129.931 72.4974C128.59 73.9525 127.066 75.2898 125.39 76.2806C125.104 76.45 124.813 76.6123 124.519 76.7672C124.486 76.78 124.464 76.8006 124.434 76.8151C124.409 76.8279 124.383 76.8334 124.354 76.8482C123.556 77.2525 122.803 77.5496 122.123 77.7519C118.511 78.9241 116.428 78.0311 115.447 77.3001C115.395 77.2673 115.348 77.2266 115.296 77.1883C114.91 76.8755 114.73 76.6149 114.73 76.6149C114.014 75.6796 113.672 74.3019 113.749 72.4864C113.749 72.4385 113.782 72.3872 113.815 72.2914C113.973 72.2183 114.021 72.1776 114.069 72.1741C114.451 72.1541 114.833 72.1521 115.215 72.1263C120.4 71.783 125.214 70.4196 129.186 66.8756C133.103 63.3884 134.771 58.9976 134.106 53.8023C133.507 49.1538 129.226 46.6482 123.946 47.6711C118.511 48.7278 114.363 51.7593 111.037 56.0105C106.536 61.761 103.799 68.2094 103.971 75.6172C104.023 77.9284 104.629 79.8794 105.662 81.4666L104.725 81.3673C99.9957 79.6075 97.0779 73.7816 96.1962 71.7719C95.2664 69.5286 94.5608 67.1698 93.8812 64.8015C93.808 64.5278 93.9804 64.0005 94.2079 63.8519C105.375 57.9247 105.617 56.7439 105.617 56.7439L105.606 56.7381C106.602 55.6321 107.234 54.2649 107.576 52.5675C107.896 51.0091 108.134 49.4005 106.753 48.3235C105.327 47.2141 103.74 47.9303 102.48 48.7719C99.4004 50.8277 96.2365 52.8357 93.4586 55.2609C90.2727 58.0423 87.462 61.254 84.4963 64.2707C84.4963 64.2707 89.3579 50.0471 93.3483 42.4117C93.51 42.338 93.6716 42.2571 93.8481 42.1726L93.8957 42.1616L93.9804 42.1378L94.0614 42.0899C94.9654 41.5298 96.1887 40.8609 97.8458 40.0817L97.8678 40.0712L97.8902 40.0582C103.222 37.0214 110.552 31.8421 115.212 24.2085V24.2268L116.127 22.6321C119.261 17.1519 120.216 13.0127 120.216 10.0105C120.216 8.23209 119.878 6.85999 119.478 5.86197L119.47 5.82918L119.463 5.74096L119.43 5.65622C119.416 5.61588 119.18 5.00964 118.621 4.27832C118.618 4.27483 118.618 4.27483 118.61 4.27135V4.26555C118.383 3.96257 118.221 3.79889 118.199 3.7751L117.997 3.57631C117.942 3.52175 117.883 3.46254 117.82 3.40218L117.453 3.04349L117.438 3.07686C116.524 2.36063 115.234 1.75787 113.551 1.76164C110.795 1.77238 107.128 3.31947 102.208 8.06493L102.189 8.08147L102.175 8.10004C102.148 8.13661 90.3388 21.2287 84.7943 37.2269C72.8193 40.8591 66.8186 36.845 64.7166 34.8333C60.2043 30.0269 59.1245 24.9726 59.1828 21.1146C59.3775 18.4949 59.8335 16.3254 60.447 14.5374C60.5279 14.2948 60.6159 14.0893 60.7006 13.8618C61.5312 11.7044 62.5853 10.139 63.6474 9.011C66.3377 6.3324 69.512 6.07121 70.8679 6.10458C71.092 6.1159 71.316 6.12287 71.5514 6.1545C76.7694 7.45317 77.1844 11.0172 77.2175 11.5448C77.2247 11.7044 77.2175 11.8588 77.2102 12.0114C76.8318 16.1103 73.3005 17.4186 73.3005 17.4186L73.3042 17.4215C72.7267 17.6058 72.198 17.804 71.7458 18.0097C71.7387 18.0117 71.7314 18.0129 71.724 18.0135H71.7278C69.1667 19.1822 68.5094 20.5299 68.4023 21.4562V21.4748C68.3878 21.5665 68.3878 21.6547 68.3878 21.7415V21.7757C68.395 22.2644 68.5381 22.579 68.5381 22.579C68.7993 23.4514 69.3907 23.8629 70.0559 24.0356C70.0634 24.0356 70.0634 24.0376 70.0669 24.0376C70.6404 24.1807 71.2646 24.1424 71.794 24.0507V24.0541C71.794 24.0541 71.8375 24.0492 71.9008 24.0356C72.2326 23.9728 72.5602 23.8895 72.8817 23.786C73.2711 23.6691 73.6559 23.5373 74.0353 23.391C74.138 23.3521 74.2376 23.3121 74.3365 23.2738C74.5571 23.1832 74.7852 23.0822 75.0237 22.9699C75.1009 22.9337 75.1816 22.9006 75.2626 22.8568C76.8057 22.1066 78.544 20.9292 79.7786 19.1122V19.1087C80.0502 18.7445 80.3088 18.3706 80.5538 17.988C80.9287 17.3852 81.2262 16.7676 81.4871 16.1359L81.5239 16.1063L81.5164 16.07C82.0016 14.879 82.3029 13.6447 82.3766 12.3623C82.439 11.2566 82.4134 10.1596 82.2219 9.08297C82.0565 8.18101 81.7663 7.32867 81.3733 6.51639C80.3483 4.42922 78.7277 2.84005 76.7581 1.56111C75.9164 1.01175 74.9355 0.689042 73.936 0.413055C72.2569 -0.0460514 70.5185 -0.0901628 68.7407 0.122849C67.7229 0.245896 66.7231 0.451362 65.7529 0.824568C64.9522 1.12928 64.1509 1.42355 63.4051 1.84987C62.6372 2.28373 61.9465 2.80145 61.27 3.34356C61.1011 3.47531 60.9432 3.61693 60.7813 3.75275L60.7372 3.78612L60.7151 3.80818C59.7603 4.63527 58.9001 5.53491 58.1911 6.5605C57.2506 7.9236 56.2946 9.28496 55.5894 10.7673C55.1965 11.5982 54.8946 12.4468 54.6491 13.3104C54.3438 14.4016 54.0281 15.4907 53.7451 16.5877C53.4215 17.8095 53.3185 19.0498 53.2488 20.2841C53.1348 22.1855 53.2007 24.0689 53.5094 25.921C53.5094 25.921 54.0388 36.8302 62.0858 42.8154C62.6848 43.3207 63.3314 43.8001 64.0555 44.2229C65.871 45.2775 68.0793 46.0271 70.7396 46.3339H70.7431C71.6175 46.4349 72.5436 46.4883 73.517 46.4883C75.4974 46.4883 77.6911 46.2697 80.1274 45.7955C79.1758 49.3337 72.992 71.1822 63.7798 76.2309C63.6294 76.2678 63.4823 76.3134 63.3241 76.3447C61.4981 76.6146 61.3034 74.912 61.5608 73.1478C62.376 69.7968 63.475 66.5044 64.2209 63.1313C65.0254 59.4828 65.7715 55.7786 66.0838 52.0605C66.3336 49.099 64.4557 47.8241 61.5567 48.3862C58.9402 48.8897 56.8353 50.3297 54.9025 52.0478C50.199 56.2383 46.6938 61.3953 43.1732 66.5378C42.8096 67.0743 42.4422 67.6034 42.0783 68.138C42.2182 66.9049 42.6732 65.8691 43.056 64.807C44.755 60.1531 46.4429 55.4952 48.1196 50.8332C48.6223 49.4333 48.0238 48.6471 46.6532 48.3093C43.2467 47.4677 38.4149 50.003 37.331 53.3171C37.037 54.2063 36.7506 55.0958 36.4566 55.985C35.3799 56.8295 33.8658 57.3684 32.2494 57.7007C32.0468 52.2593 28.4458 48.4744 22.9675 47.9088C19.4289 47.5408 16.1844 48.4152 13.3882 50.4824C5.07649 56.6202 0.773515 64.9683 0.582555 75.2683C0.483303 80.7538 3.3715 84.2537 8.3765 85.3286C11.411 85.9862 14.4094 85.5823 17.1215 84.0941C25.0878 79.7065 29.3423 72.9052 31.3082 64.6897C32.0874 64.5406 32.9546 64.4471 33.7556 64.3879C33.1055 66.453 32.4479 68.5181 31.8306 70.5943C30.7649 74.1914 29.9268 77.8697 29.1737 81.5513C28.9496 82.65 29.0782 83.5706 29.4273 84.2964L29.4053 84.3219C29.4053 84.3219 29.4459 84.3918 29.515 84.5039C29.7183 84.8498 29.9942 85.1474 30.3238 85.3762C31.1251 86.0228 32.4772 86.5591 34.4614 85.6278C34.8543 85.4607 35.3686 85.167 36.0268 84.6704C36.0321 84.6649 36.0382 84.6601 36.0448 84.6562C36.0523 84.649 36.0599 84.6449 36.0668 84.6377C38.0585 83.1091 41.34 79.6754 46.4402 72.0128C47.2818 70.8862 48.1266 69.764 48.9865 68.6522C50.7429 66.3869 52.6133 64.219 54.4465 62.0216L54.4428 62.0291C54.4428 62.0291 55.0859 61.0976 55.1668 62.3266C54.41 65.4115 53.6049 68.4885 52.9363 71.592C52.198 74.9961 51.2867 78.3985 51.9702 81.946C52.4917 84.6342 53.9761 85.8945 56.732 85.9204C60.3701 85.9572 63.5592 84.6376 66.4294 82.5029C67.7484 81.5182 68.9682 80.394 70.3606 79.2256C70.2503 80.2541 70.1441 81.0588 70.0959 81.8729C70.0005 83.4049 70.5043 84.7038 71.8822 85.472C73.337 86.2968 74.7922 86.0469 75.9611 84.9244C77.4157 83.5317 78.8194 82.0618 80.0909 80.5045C82.1409 77.9887 84.0703 75.3708 86.0547 72.7993C86.35 73.7619 86.6984 74.7075 87.0983 75.6317C87.2376 76.0269 87.3775 76.4326 87.5209 76.8221C88.106 77.9783 88.8078 79.0717 89.6153 80.0852C93.0065 84.7407 97.3495 86.7396 100.26 87.6012V87.6033C100.26 87.6033 100.367 87.6361 100.517 87.6767C100.554 87.6839 100.587 87.697 100.627 87.7095C100.73 87.7391 100.863 87.7684 101.009 87.809C101.671 87.9744 102.241 88.0807 102.656 88.1486C105.455 88.6207 110.21 88.9109 114.264 86.71C114.815 86.4494 115.369 86.1586 115.91 85.817V85.7915C121.984 85.8136 127.216 83.4728 131.372 78.7183C130.971 81.5475 132.699 83.2191 135.712 83.6234C139.298 84.1051 142.223 82.5136 144.905 80.4764C147.29 78.6632 149.494 76.6149 152.03 74.4616C149.671 79.4755 147.187 84.0537 143.902 88.1616C138.648 94.7426 131.967 97.8214 123.468 96.4952C121.286 96.1571 120.341 97.2666 120.617 99.6259C121.054 103.418 123.938 105.821 128.157 105.894C133.33 105.983 138.063 104.571 142.374 101.718C148.128 97.9044 152.36 92.6845 155.44 86.6476C158.537 80.5701 161.216 74.2723 164.012 68.0404C171.703 52.6116 171.417 51.1858 171.417 51.1858Z" fill="#FFDF39"/>
</mask>
<g mask="url(#mask0_2487_1069)">
<rect id="Rectangle 34627487" x="-15.5781" y="-21.6426" width="186.675" height="135.272" fill="#FFDF39"/>
</g>
</g>
</svg>
