<svg width="40" height="40" viewBox="0 0 40 40" fill="none" xmlns="http://www.w3.org/2000/svg">
<g clip-path="url(#clip0_1896_1995)">
<path d="M15.2632 7.9C11.2078 7.9 7.9 11.2078 7.9 15.2632V24.7368C7.9 28.7917 11.2076 32.1 15.2632 32.1H24.7368C28.7918 32.1 32.1 28.7918 32.1 24.7368V15.2632C32.1 11.2076 28.7917 7.9 24.7368 7.9H15.2632ZM15.2632 9.99474H24.7368C27.6571 9.99474 30.0053 12.3423 30.0053 15.2632V24.7368C30.0053 27.657 27.657 30.0053 24.7368 30.0053H15.2632C12.3423 30.0053 9.99474 27.6571 9.99474 24.7368V15.2632C9.99474 12.3421 12.3421 9.99474 15.2632 9.99474ZM26.3158 12.3211C25.5627 12.3211 24.9526 12.9311 24.9526 13.6842C24.9526 14.4373 25.5627 15.0474 26.3158 15.0474C27.0689 15.0474 27.6789 14.4373 27.6789 13.6842C27.6789 12.9311 27.0689 12.3211 26.3158 12.3211ZM20 13.5842C16.468 13.5842 13.5842 16.468 13.5842 20C13.5842 23.532 16.468 26.4158 20 26.4158C23.532 26.4158 26.4158 23.532 26.4158 20C26.4158 16.468 23.532 13.5842 20 13.5842ZM20 15.6789C22.3973 15.6789 24.3211 17.6027 24.3211 20C24.3211 22.3973 22.3973 24.3211 20 24.3211C17.6027 24.3211 15.6789 22.3973 15.6789 20C15.6789 17.6027 17.6027 15.6789 20 15.6789Z" fill="black" stroke="black" stroke-width="0.2"/>
</g>
<defs>
<clipPath id="clip0_1896_1995">
<rect width="24" height="24" fill="white" transform="translate(8 8)"/>
</clipPath>
</defs>
</svg>
