<svg width="263" height="125" viewBox="0 0 263 125" fill="none" xmlns="http://www.w3.org/2000/svg">
<path d="M96.1807 102.296C95.8885 102.785 95.3531 103.156 94.8 103.424C92.0957 104.723 89.5058 103.331 88.7134 102.828C88.6492 102.783 88.5705 102.742 88.5097 102.696C88.4995 102.685 88.4778 102.671 88.4742 102.667C85.5701 100.284 86.6476 95.5817 86.6476 95.5817C86.7657 95.607 86.8728 95.6389 86.9866 95.6639C88.7492 96.1137 97.3335 98.4984 96.1807 102.296ZM101.162 94.2976C99.135 92.5082 96.7804 91.2898 94.2437 90.3979C92.2168 89.6842 90.1266 89.2133 88.0323 88.7475C87.9213 88.7244 87.8176 88.6926 87.6897 88.6568C87.7362 88.4818 87.7714 88.3355 87.8176 88.1913C89.1543 83.7274 90.6527 79.3135 92.3098 74.9583C94.1045 70.2255 95.8741 65.4875 97.6542 60.751C98.55 58.3713 99.4238 55.9829 100.355 53.6173C101.054 51.8353 101.875 50.1035 102.546 48.3124C103.256 46.4267 103.656 44.4661 103.573 42.4338C103.527 41.1979 103.192 40.0674 102.164 39.2891C101.083 38.4795 99.8665 38.1264 98.5748 38.087V38.0763C98.5249 38.0763 98.4677 38.0907 98.411 38.0907C98.1501 38.087 97.8937 38.0766 97.6294 38.1011C96.088 38.2369 94.7357 38.8754 93.5153 39.7712C82.848 46.0359 68.5271 67.6319 68.5271 67.6319L68.5198 67.6339C69.408 64.7225 70.0539 61.7505 70.6284 58.7658C70.8454 57.6384 71.0032 56.4966 70.8992 55.3407C70.7355 53.5142 69.5579 52.1549 67.7956 51.7694C66.8004 51.5555 65.8119 51.6696 64.8233 51.8407C62.0049 52.3225 59.5506 53.5711 57.4025 55.4441C56.746 56.0153 56.1359 56.6321 55.4836 57.2586C55.49 57.1957 55.4934 57.1495 55.5078 57.103C56.6781 52.9506 57.3634 48.7188 57.7629 44.4306C57.8914 43.0354 57.8875 41.6336 57.5558 40.2596C56.9565 37.7838 55.5439 36.0283 53.0712 35.2401C51.6724 34.7957 50.2348 34.7848 48.8038 35.0079C46.0322 35.436 43.4279 36.3746 40.9372 37.6483C39.1995 38.5348 37.5623 39.5889 36.0567 40.8212C34.2654 42.2864 32.6635 43.9541 31.1582 45.7073C29.0422 48.1676 27.2656 50.835 26.1883 53.9211C25.3103 56.4256 24.9786 58.9622 25.8135 61.5558C26.0094 62.1766 26.2774 62.7511 26.6983 63.2451C27.6437 64.337 28.878 64.8008 30.2838 64.8704C31.6575 64.94 32.9382 64.5596 34.1834 64.0248C36.1742 63.1665 37.7869 61.8071 39.1964 60.17C40.363 58.812 41.3047 57.3208 41.7688 55.5746C41.8897 55.1159 41.9753 54.634 41.9824 54.1595C41.9863 53.9853 41.9291 53.8459 41.8578 53.7207L41.8612 53.714C41.8398 53.6923 41.822 53.6816 41.8043 53.6604C41.7508 53.5959 41.6969 53.539 41.6223 53.4964C40.7017 52.7773 39.9206 53.6692 39.5993 54.1474H39.5959C39.0572 55.0643 38.3645 55.8581 37.6088 56.5933C37.3552 56.8325 37.0734 57.0461 36.7806 57.2332C36.2244 57.5708 35.4819 57.8272 34.8577 57.3422C34.683 57.1994 34.5331 57.01 34.408 56.7677C34.2443 56.1686 34.2871 54.9558 35.2432 52.4831C35.3106 52.3132 35.3751 52.1478 35.4427 51.9835C35.7887 51.1506 36.1996 50.3779 36.6451 49.6326H36.631C36.631 49.6326 36.6809 49.554 36.7558 49.4452C37.5121 48.2034 38.4043 47.0776 39.3995 46.0573C40.8874 44.4162 42.8103 42.7145 44.7653 42.1115C44.8797 42.0686 45.0009 42.0435 45.1187 42.0151C45.2793 41.9759 45.4393 41.9401 45.6002 41.9184C45.7073 41.9012 45.8073 41.8655 45.9215 41.8542C47.4699 41.7443 48.6469 42.5381 49.0183 43.9028C49.0253 43.9205 49.029 43.9453 49.0324 43.9735C49.0394 43.9955 49.0394 44.0237 49.0465 44.0468C49.1752 44.8961 49.1642 48.883 42.9461 62.9937C42.5392 63.8997 42.1329 64.8025 41.7045 65.7054C39.7242 69.8724 37.648 73.9966 35.6247 78.1496C34.2296 81.0181 32.7669 83.8492 31.1221 86.5874C30.8228 87.0886 30.8369 87.5522 31.2472 87.9701C31.5274 88.2585 31.8513 88.5009 32.207 88.6886C33.2276 89.2029 34.3297 89.4627 35.4531 89.5847C36.7274 89.7236 37.8187 89.2271 38.7968 88.448C39.8777 87.5885 40.6912 86.4983 41.4047 85.3371C44.8436 79.7586 48.2837 74.1806 51.7192 68.6058C51.8514 68.3916 51.9655 68.169 52.1255 67.978C53.3211 66.5149 54.5021 65.0384 55.9181 63.7858C56.7677 63.0399 57.6595 62.3479 58.5621 61.6668C59.0436 61.3022 59.5934 61.0424 60.1959 60.9209C60.8564 60.7924 61.3377 61.0528 61.5304 61.6987C61.6268 62.0162 61.6843 62.3552 61.6876 62.6869C61.6981 63.8391 61.4986 64.9699 61.1525 66.0728C60.2353 68.9696 59.0225 71.7491 57.759 74.5052C57.1526 75.8285 56.5462 77.1506 56.2041 78.5742C55.6687 80.7631 56.2396 82.6198 57.859 84.1651C57.9593 84.2615 58.0802 84.3573 58.2093 84.4075C59.4863 84.9107 60.7989 85.2176 62.1872 85.1601C63.4001 85.1139 64.4024 84.6895 65.095 83.6526C65.3049 83.3339 65.5227 83.014 65.7265 82.6914C66.0111 82.2386 66.283 81.7778 66.5718 81.3304C67.6177 79.6808 68.6702 78.0355 69.7292 76.3943C70.3356 75.456 70.964 74.5281 71.5811 73.59C73.9645 69.9561 76.4543 66.3904 79.0234 62.8867C81.8384 59.0315 85.0099 55.4816 88.2707 52.0083C88.4032 51.8731 88.5457 51.7513 88.681 51.6285L88.6886 51.6037C88.6886 51.6037 90.6507 49.4114 91.7209 50.2458C91.7209 50.2458 92.7201 50.8274 90.7544 54.6768C90.7363 54.7022 90.729 54.7146 90.7186 54.7383C88.949 58.5801 87.1365 62.4087 85.4596 66.2937C82.8162 72.4234 80.7682 78.767 79.1161 85.2424C78.9059 86.052 78.6807 86.8618 78.4556 87.7007C77.9458 87.7365 77.4533 87.7737 76.9576 87.7897C73.8354 87.8934 70.7141 87.9892 67.5922 88.0983C66.0511 88.1462 64.5027 88.1572 62.9684 88.2857C60.7456 88.4818 58.5263 88.703 56.3179 89.0172C53.7303 89.3854 51.1523 89.8184 48.5863 90.3157C44.366 91.1469 40.2167 92.278 36.121 93.5872C32.8776 94.6185 29.6991 95.8246 26.6017 97.2335C22.2529 99.2066 18.1425 101.594 14.1823 104.255C10.3827 106.811 6.85754 109.676 3.95685 113.256C3.06556 114.355 2.09143 115.394 1.41683 116.653C0.735474 117.923 0.182611 119.242 0.0256568 120.699C-0.167084 122.522 0.731811 123.692 2.53017 123.981C3.45076 124.131 4.36374 124.058 5.28096 123.971C6.09419 123.889 6.8505 123.664 7.57131 123.279C9.35895 122.331 10.8395 121.019 12.1382 119.482C13.1301 118.309 14.0538 117.073 14.6892 115.676C15.399 114.12 16.3016 112.7 17.3831 111.387C19.6841 108.59 22.4952 106.392 25.5422 104.466C29.5881 101.911 33.9732 100.113 38.5432 98.743C39.7422 98.3826 40.9657 98.1079 42.1754 97.794C43.0633 97.5657 43.9521 97.3189 44.8473 97.1194C48.5795 96.2937 52.3507 95.6639 56.1359 95.1466C59.0794 94.7397 62.0263 94.397 64.9983 94.2508C68.9123 94.0547 72.8297 93.9961 76.7502 94.0118C76.8221 94.0118 76.9007 94.0225 76.9934 94.0299C77.0325 94.2508 77.0681 94.4652 77.1038 94.6828C77.4037 96.5595 77.6959 98.4322 78.3169 100.231C78.9233 101.997 79.7583 103.642 81.0748 104.989C83.7326 107.709 86.8973 109.546 90.6439 110.299C92.9055 110.758 95.1818 110.748 97.4116 110.099C100.034 109.336 102.168 107.894 103.662 105.557C104.708 103.927 105.118 102.182 104.704 100.274C104.187 97.8847 102.981 95.9066 101.162 94.2976Z" fill="white"/>
<path d="M117.802 54.3424C116.985 55.1379 115.751 56.6578 115.444 58.7416C115.102 60.4859 115.351 62.6125 117.135 64.871C116.218 67.6393 114.97 70.2221 113.335 72.6486C112.583 73.769 111.58 74.7981 110.495 75.6102C108.758 76.9193 106.881 76.1895 106.31 74.1043C106.129 73.4494 106.036 72.7343 106.089 72.0636C106.575 66.0557 108.612 60.6217 112.197 55.7764C112.668 55.1452 113.278 54.5991 113.896 54.1068C115.447 52.8907 117.01 53.022 117.885 54.2604L117.802 54.3424ZM194.795 20.5019C196.283 18.0901 197.878 15.7998 199.422 14.1122C200.95 12.4249 202.452 11.3935 203.551 11.3079H203.572C203.682 11.3149 203.964 11.3687 204.157 11.522C204.35 11.6753 204.538 11.8821 204.549 12.5224C204.556 13.1882 204.271 14.3187 203.343 16.0278L203.333 16.0387L203.33 16.0511L203.286 16.1348C202.84 16.9912 198.944 24.1195 188.898 31.557C190.107 29.0006 192.291 24.5766 194.795 20.5019ZM214.707 54.2638C215.456 53.7521 216.926 53.4686 217.568 53.8679C218.196 54.2567 218.482 55.6981 218.399 56.6223C217.997 60.9269 213.276 64.3503 208.403 63.8792C209.662 60.0686 211.342 56.5846 214.707 54.2638ZM262.997 49.7006C262.997 49.7006 262.99 49.7079 262.986 49.7079C262.997 49.6166 262.997 49.5242 262.986 49.4329L263 49.41C262.981 49.2842 262.942 49.1621 262.886 49.0479C262.883 49.0372 262.879 49.0299 262.876 49.0192C262.241 47.7241 259.479 47.6168 259.479 47.6168L259.475 47.6224C256.504 47.4012 253.075 48.9513 251.972 51.5772C249.354 57.8318 245.839 63.5331 241.326 68.5974C239.813 70.2979 238.194 71.9295 235.839 72.4987C234.793 72.754 234.234 72.442 234.48 71.3251C234.726 70.1937 234.986 69.0398 235.432 67.9786C238.151 61.4885 240.93 55.0274 243.67 48.5481C244.309 47.036 243.902 46.2616 242.357 45.8598C239.171 45.0356 235.3 46.8032 233.955 49.7828C233.363 51.1098 232.756 52.4282 232.15 53.7521C231.725 54.6792 231.305 55.6085 230.89 56.5401C230.341 57.903 229.788 59.1697 229.227 60.3467C229.181 60.4504 229.135 60.5541 229.092 60.6538H229.085L229.06 60.6806C228.985 60.8429 228.907 60.9855 228.832 61.1461L228.839 61.1354C228.839 61.1354 226.884 65.476 223.57 69.4216C223.534 69.4627 223.501 69.5056 223.466 69.5478C223.226 69.8294 222.98 70.1055 222.728 70.376C222.724 70.383 222.716 70.3901 222.716 70.3938C221.414 71.8066 219.934 73.1051 218.307 74.0671C218.029 74.2316 217.747 74.3892 217.461 74.5397C217.429 74.5521 217.408 74.5721 217.379 74.5862C217.354 74.5985 217.329 74.6039 217.301 74.6183C216.526 75.0108 215.795 75.2993 215.135 75.4958C211.628 76.6339 209.605 75.7668 208.652 75.057C208.602 75.0252 208.556 74.9857 208.506 74.9485C208.131 74.6448 207.957 74.3917 207.957 74.3917C207.261 73.4835 206.929 72.1459 207.004 70.383C207.004 70.3366 207.036 70.2867 207.068 70.1937C207.222 70.1227 207.268 70.0832 207.315 70.0798C207.685 70.0604 208.057 70.0584 208.428 70.0333C213.462 69.7 218.136 68.3762 221.992 64.935C225.796 61.5491 227.415 57.2857 226.77 52.2411C226.188 47.7275 222.031 45.2946 216.905 46.2879C211.628 47.3138 207.6 50.2574 204.371 54.3852C200 59.9688 197.342 66.2301 197.51 73.4229C197.56 75.6671 198.149 77.5615 199.152 79.1026L198.242 79.0062C193.65 77.2975 190.817 71.6407 189.961 69.6893C189.058 67.5111 188.373 65.2207 187.713 62.9211C187.642 62.6554 187.809 62.1434 188.03 61.9991C198.873 56.2439 199.108 55.0973 199.108 55.0973L199.098 55.0917C200.065 54.0178 200.679 52.6903 201.01 51.0421C201.32 49.5289 201.552 47.967 200.211 46.9213C198.827 45.844 197.285 46.5395 196.062 47.3567C193.072 49.3528 190 51.3025 187.303 53.6574C184.209 56.358 181.48 59.4765 178.601 62.4057C178.601 62.4057 183.321 48.5948 187.196 41.1811C187.353 41.1095 187.51 41.0309 187.681 40.9489L187.727 40.9382L187.809 40.9151L187.888 40.8686C188.766 40.3247 189.953 39.6752 191.562 38.9186L191.584 38.9085L191.606 38.8958C196.782 35.9472 203.9 30.9181 208.424 23.5061V23.5238L209.312 21.9754C212.356 16.6542 213.283 12.6351 213.283 9.71999C213.283 7.99321 212.955 6.66093 212.566 5.69187L212.559 5.66003L212.552 5.57437L212.52 5.49209C212.506 5.45292 212.277 4.86427 211.735 4.15417C211.731 4.15079 211.731 4.15079 211.724 4.14741V4.14177C211.503 3.84759 211.346 3.68866 211.325 3.66555L211.129 3.47253C211.075 3.41955 211.018 3.36207 210.957 3.30346L210.6 2.95517L210.586 2.98758C209.698 2.29213 208.446 1.70686 206.811 1.71053C204.135 1.72095 200.575 3.22315 195.798 7.83091L195.78 7.84697L195.766 7.865C195.74 7.90051 184.274 20.6127 178.89 36.1467C167.263 39.6735 161.436 35.7758 159.395 33.8225C155.014 29.1556 153.966 24.248 154.022 20.5019C154.211 17.9583 154.654 15.8516 155.25 14.1156C155.328 13.88 155.414 13.6805 155.496 13.4596C156.302 11.3648 157.326 9.84483 158.357 8.74953C160.969 6.14865 164.051 5.89504 165.368 5.92744C165.586 5.93843 165.803 5.9452 166.032 5.97591C171.098 7.2369 171.501 10.6975 171.533 11.2098C171.54 11.3648 171.533 11.5147 171.526 11.6629C171.159 15.6428 167.73 16.9131 167.73 16.9131L167.734 16.9159C167.173 17.0949 166.659 17.2873 166.22 17.4871C166.213 17.489 166.206 17.4902 166.199 17.4908H166.203C163.716 18.6255 163.078 19.9342 162.974 20.8336V20.8516C162.96 20.9407 162.96 21.0264 162.96 21.1106V21.1439C162.967 21.6184 163.106 21.9238 163.106 21.9238C163.359 22.7709 163.934 23.1705 164.58 23.3381C164.587 23.3381 164.587 23.3401 164.59 23.3401C165.147 23.479 165.753 23.4418 166.267 23.3528V23.3562C166.267 23.3562 166.309 23.3514 166.371 23.3381C166.693 23.2772 167.011 23.1963 167.323 23.0958C167.701 22.9823 168.075 22.8543 168.443 22.7123C168.543 22.6745 168.64 22.6356 168.736 22.5984C168.95 22.5105 169.172 22.4125 169.403 22.3034C169.478 22.2682 169.556 22.2361 169.635 22.1935C171.133 21.4651 172.821 20.3219 174.02 18.5576V18.5542C174.284 18.2005 174.535 17.8376 174.773 17.466C175.137 16.8807 175.425 16.2811 175.679 15.6676L175.715 15.6389L175.707 15.6037C176.178 14.4472 176.471 13.2488 176.542 12.0036C176.603 10.93 176.578 9.86483 176.392 8.81941C176.232 7.94362 175.95 7.11602 175.568 6.3273C174.573 4.3007 173 2.75764 171.087 1.51581C170.27 0.982392 169.317 0.669047 168.347 0.401069C166.717 -0.0447151 165.029 -0.0875465 163.303 0.119284C162.314 0.238761 161.344 0.438265 160.402 0.800641C159.624 1.09652 158.846 1.38225 158.122 1.79619C157.376 2.21746 156.706 2.72016 156.049 3.24654C155.885 3.37447 155.731 3.51198 155.574 3.64386L155.531 3.67626L155.51 3.69768C154.583 4.50077 153.748 5.3743 153.059 6.37013C152.146 7.69368 151.218 9.01553 150.533 10.4549C150.152 11.2616 149.859 12.0856 149.62 12.9242C149.324 13.9837 149.017 15.0412 148.742 16.1064C148.428 17.2927 148.328 18.497 148.261 19.6955C148.15 21.5417 148.214 23.3705 148.514 25.1689C148.514 25.1689 149.028 35.7615 156.841 41.573C157.422 42.0636 158.05 42.5291 158.753 42.9397C160.516 43.9637 162.66 44.6915 165.243 44.9894H165.247C166.096 45.0874 166.995 45.1393 167.94 45.1393C169.863 45.1393 171.993 44.9271 174.359 44.4667C173.435 47.9022 167.43 69.1167 158.486 74.0189C158.34 74.0547 158.197 74.0989 158.043 74.1294C156.27 74.3914 156.081 72.7382 156.331 71.0252C157.123 67.7715 158.19 64.5746 158.914 61.2994C159.695 57.7568 160.42 54.1601 160.723 50.5499C160.965 47.6742 159.142 46.4364 156.327 46.9822C153.787 47.4711 151.743 48.8693 149.866 50.5375C145.299 54.6064 141.896 59.6138 138.477 64.607C138.124 65.128 137.768 65.6417 137.414 66.1608C137.55 64.9635 137.992 63.9578 138.364 62.9264C140.013 58.4076 141.652 53.8848 143.28 49.3582C143.768 47.9989 143.187 47.2355 141.856 46.9075C138.549 46.0903 133.857 48.552 132.805 51.77C132.519 52.6334 132.241 53.4971 131.956 54.3604C130.91 55.1804 129.44 55.7037 127.871 56.0264C127.674 50.7429 124.178 47.0678 118.858 46.5186C115.423 46.1613 112.272 47.0104 109.557 49.0175C101.487 54.9773 97.3089 63.0831 97.1235 73.0842C97.0271 78.4106 99.8315 81.8089 104.691 82.8526C107.637 83.4911 110.549 83.0989 113.182 81.6539C120.917 77.3936 125.048 70.7897 126.957 62.8126C127.714 62.6678 128.556 62.577 129.333 62.5195C128.702 64.5247 128.064 66.5299 127.464 68.5458C126.429 72.0385 125.616 75.6102 124.884 79.1849C124.667 80.2517 124.792 81.1456 125.131 81.8503L125.109 81.8751C125.109 81.8751 125.149 81.943 125.216 82.0518C125.413 82.3876 125.681 82.6766 126.001 82.8988C126.779 83.5266 128.092 84.0474 130.019 83.1431C130.4 82.9808 130.899 82.6956 131.539 82.2135C131.544 82.2082 131.55 82.2035 131.556 82.1997C131.563 82.1927 131.571 82.1887 131.577 82.1817C133.511 80.6975 136.697 77.3634 141.65 69.9232C142.467 68.8293 143.287 67.7396 144.122 66.6601C145.827 64.4605 147.643 62.3555 149.423 60.2219L149.42 60.2292C149.42 60.2292 150.044 59.3247 150.123 60.518C149.388 63.5134 148.606 66.5012 147.957 69.5146C147.24 72.8199 146.355 76.1236 147.019 79.5681C147.525 82.1783 148.967 83.4021 151.642 83.4272C155.175 83.463 158.272 82.1817 161.058 80.1089C162.339 79.1528 163.523 78.0611 164.875 76.9267C164.768 77.9253 164.665 78.7067 164.618 79.4971C164.526 80.9847 165.015 82.2459 166.353 82.9918C167.765 83.7926 169.178 83.55 170.313 82.4601C171.726 81.1078 173.089 79.6805 174.323 78.1685C176.314 75.7257 178.187 73.1837 180.114 70.6868C180.401 71.6216 180.739 72.5397 181.127 73.437C181.262 73.8208 181.398 74.2148 181.537 74.5929C182.106 75.7156 182.787 76.7773 183.571 77.7613C186.864 82.2817 191.081 84.2226 193.907 85.0593C193.907 85.0593 194.01 85.0931 194.156 85.1325C194.192 85.1396 194.224 85.1523 194.263 85.1644C194.363 85.1931 194.492 85.2216 194.634 85.261C195.277 85.4216 195.83 85.5248 196.233 85.5907C198.951 86.0492 203.568 86.331 207.504 84.1939C208.039 83.9409 208.577 83.6585 209.102 83.3269V83.3021C215 83.3235 220.08 81.0506 224.115 76.4341C223.726 79.1812 225.404 80.8043 228.329 81.1968C231.811 81.6646 234.651 80.1193 237.256 78.1412C239.571 76.3806 241.711 74.3917 244.174 72.3009C241.883 77.1693 239.471 81.6147 236.282 85.6034C231.18 91.9934 224.693 94.9829 216.441 93.6951C214.322 93.3669 213.405 94.4441 213.672 96.7351C214.097 100.417 216.898 102.75 220.993 102.821C226.017 102.907 230.612 101.537 234.797 98.7664C240.384 95.0635 244.494 89.995 247.484 84.1333C250.492 78.2322 253.093 72.1171 255.808 66.0661C263.275 51.085 262.997 49.7006 262.997 49.7006Z" fill="white"/>
</svg>
