<svg width="448" height="212" viewBox="0 0 448 212" fill="none" xmlns="http://www.w3.org/2000/svg">
<path d="M164.16 174.248C163.66 175.078 162.76 175.708 161.82 176.158C157.23 178.358 152.84 175.998 151.5 175.148C151.39 175.068 151.26 174.998 151.15 174.928C151.13 174.908 151.1 174.888 151.09 174.878C146.16 170.838 147.99 162.858 147.99 162.858C148.19 162.898 148.37 162.958 148.57 162.998C151.56 163.758 166.12 167.808 164.17 174.248H164.16ZM172.61 160.678C169.17 157.638 165.18 155.578 160.87 154.058C157.43 152.848 153.89 152.048 150.33 151.258C150.14 151.218 149.97 151.168 149.75 151.108C149.83 150.808 149.89 150.568 149.97 150.318C152.24 142.748 154.78 135.258 157.59 127.868C160.63 119.838 163.64 111.798 166.66 103.768C168.18 99.7284 169.66 95.6784 171.24 91.6684C172.43 88.6484 173.82 85.7084 174.96 82.6684C176.16 79.4684 176.84 76.1484 176.7 72.6984C176.62 70.5984 176.05 68.6884 174.31 67.3684C172.48 65.9984 170.41 65.3984 168.22 65.3284V65.3084C168.14 65.3084 168.04 65.3284 167.94 65.3284C167.5 65.3284 167.06 65.3084 166.61 65.3484C164 65.5784 161.7 66.6584 159.63 68.1784C141.53 78.8084 117.24 115.438 117.24 115.438H117.23C118.74 110.498 119.83 105.458 120.81 100.398C121.18 98.4884 121.45 96.5484 121.27 94.5884C120.99 91.4884 118.99 89.1884 116.01 88.5284C114.32 88.1684 112.64 88.3584 110.97 88.6484C106.19 89.4684 102.03 91.5884 98.38 94.7584C97.27 95.7284 96.23 96.7784 95.12 97.8384C95.13 97.7284 95.14 97.6584 95.16 97.5784C97.15 90.5384 98.31 83.3584 98.99 76.0784C99.21 73.7084 99.2 71.3384 98.64 68.9984C97.62 64.7984 95.23 61.8184 91.03 60.4884C88.66 59.7384 86.22 59.7184 83.79 60.0984C79.09 60.8284 74.67 62.4184 70.45 64.5784C67.5 66.0784 64.72 67.8684 62.17 69.9584C59.13 72.4484 56.41 75.2684 53.86 78.2484C50.27 82.4184 47.26 86.9484 45.43 92.1784C43.94 96.4284 43.38 100.728 44.79 105.128C45.12 106.178 45.58 107.158 46.29 107.998C47.89 109.848 49.99 110.638 52.37 110.758C54.7 110.878 56.87 110.228 58.99 109.328C62.37 107.868 65.1 105.568 67.49 102.788C69.47 100.488 71.07 97.9584 71.85 94.9884C72.06 94.2084 72.2 93.3884 72.21 92.5884C72.21 92.2884 72.12 92.0584 72 91.8484C72 91.8484 71.93 91.7784 71.9 91.7484C71.81 91.6384 71.72 91.5384 71.59 91.4684C70.03 90.2484 68.7 91.7584 68.16 92.5684C67.25 94.1284 66.07 95.4684 64.79 96.7184C64.36 97.1284 63.88 97.4884 63.39 97.8084C62.45 98.3784 61.19 98.8184 60.13 97.9884C59.83 97.7484 59.58 97.4284 59.37 97.0184C59.09 95.9984 59.16 93.9484 60.79 89.7484C60.9 89.4584 61.01 89.1784 61.13 88.8984C61.72 87.4884 62.41 86.1784 63.17 84.9084H63.15C63.15 84.9084 63.23 84.7784 63.36 84.5884C64.64 82.4784 66.16 80.5684 67.84 78.8384C70.36 76.0584 73.63 73.1684 76.94 72.1484C77.13 72.0784 77.34 72.0284 77.54 71.9884C77.81 71.9184 78.08 71.8584 78.36 71.8284C78.54 71.7984 78.71 71.7384 78.9 71.7184C81.53 71.5284 83.52 72.8784 84.15 75.1984C84.16 75.2284 84.17 75.2684 84.17 75.3184C84.18 75.3584 84.18 75.4084 84.19 75.4384C84.41 76.8784 84.39 83.6384 73.84 107.578C73.15 109.118 72.46 110.648 71.73 112.178C68.37 119.248 64.85 126.238 61.42 133.288C59.05 138.158 56.57 142.958 53.78 147.598C53.27 148.448 53.3 149.238 53.99 149.948C54.47 150.438 55.01 150.848 55.62 151.168C57.35 152.038 59.22 152.478 61.13 152.688C63.29 152.928 65.14 152.078 66.8 150.758C68.63 149.298 70.01 147.448 71.22 145.478C77.05 136.018 82.89 126.548 88.72 117.098C88.94 116.738 89.14 116.358 89.41 116.038C91.44 113.558 93.44 111.048 95.84 108.928C97.28 107.658 98.79 106.488 100.33 105.338C101.15 104.718 102.08 104.278 103.1 104.068C104.22 103.848 105.04 104.288 105.36 105.388C105.52 105.928 105.62 106.498 105.63 107.068C105.65 109.018 105.31 110.938 104.72 112.808C103.16 117.718 101.11 122.438 98.96 127.108C97.93 129.348 96.9 131.598 96.32 134.008C95.41 137.718 96.38 140.868 99.13 143.488C99.3 143.648 99.51 143.818 99.72 143.898C101.89 144.748 104.11 145.268 106.47 145.178C108.53 145.098 110.23 144.378 111.4 142.618C111.76 142.078 112.13 141.538 112.47 140.988C112.95 140.218 113.41 139.438 113.9 138.678C115.67 135.878 117.46 133.088 119.26 130.308C120.29 128.718 121.35 127.138 122.4 125.548C126.44 119.388 130.67 113.338 135.02 107.388C139.8 100.848 145.18 94.8284 150.71 88.9384C150.93 88.7084 151.18 88.4984 151.41 88.2984V88.2584C151.41 88.2584 154.75 84.5384 156.57 85.9584C156.57 85.9584 158.27 86.9484 154.93 93.4784C154.9 93.5184 154.89 93.5384 154.87 93.5784C151.87 100.098 148.79 106.588 145.95 113.178C141.47 123.578 137.99 134.338 135.19 145.318C134.83 146.688 134.45 148.068 134.07 149.488C133.21 149.548 132.37 149.608 131.53 149.638C126.23 149.818 120.94 149.978 115.64 150.158C113.03 150.238 110.4 150.258 107.8 150.478C104.03 150.808 100.26 151.188 96.52 151.718C92.13 152.338 87.76 153.078 83.4 153.918C76.24 155.328 69.2 157.248 62.25 159.468C56.75 161.218 51.36 163.268 46.1 165.658C38.72 169.008 31.75 173.058 25.03 177.568C18.58 181.908 12.6 186.768 7.67997 192.838C6.16997 194.698 4.51997 196.468 3.36997 198.598C2.20997 200.748 1.27997 202.988 1.00997 205.458C0.679972 208.548 2.20997 210.538 5.25997 211.028C6.81997 211.278 8.36997 211.158 9.92997 211.008C11.31 210.868 12.59 210.488 13.82 209.838C16.85 208.228 19.36 206.008 21.57 203.398C23.25 201.408 24.82 199.308 25.9 196.938C27.1 194.298 28.64 191.888 30.47 189.668C34.37 184.918 39.14 181.198 44.31 177.928C51.17 173.598 58.61 170.548 66.36 168.218C68.39 167.608 70.47 167.138 72.52 166.608C74.03 166.218 75.53 165.798 77.05 165.468C83.38 164.068 89.78 162.998 96.2 162.118C101.19 161.428 106.19 160.848 111.23 160.598C117.87 160.268 124.51 160.168 131.17 160.188C131.29 160.188 131.43 160.208 131.58 160.218C131.65 160.588 131.71 160.958 131.77 161.328C132.28 164.508 132.77 167.688 133.83 170.738C134.86 173.738 136.27 176.528 138.51 178.808C143.02 183.418 148.39 186.538 154.74 187.818C158.58 188.598 162.44 188.578 166.22 187.478C170.67 186.188 174.29 183.738 176.82 179.778C178.59 177.008 179.29 174.048 178.59 170.818C177.71 166.768 175.67 163.408 172.58 160.678H172.61Z" fill="#040606"/>
<path d="M202.62 79.6286C196.79 79.0186 191.45 80.4586 186.84 83.8686C173.15 93.9786 166.06 107.729 165.75 124.699C165.59 133.739 170.34 139.499 178.59 141.269C183.59 142.349 188.53 141.689 192.99 139.239C206.11 132.009 213.12 120.809 216.36 107.279L217.91 95.7686C217.58 86.8086 211.65 80.5686 202.62 79.6386V79.6286ZM200.83 92.9086C199.44 94.2586 197.35 96.8386 196.83 100.369C196.25 103.329 196.67 106.939 199.7 110.769C198.14 115.469 196.03 119.849 193.25 123.959C191.97 125.859 190.27 127.609 188.43 128.979C185.48 131.199 182.3 129.959 181.33 126.429C181.02 125.319 180.86 124.109 180.95 122.969C181.77 112.779 185.23 103.559 191.31 95.3386C192.11 94.2686 193.14 93.3386 194.19 92.5086C196.82 90.4486 199.47 90.6686 200.96 92.7686L200.82 92.9086H200.83Z" fill="#040606"/>
<path d="M280.32 115.631C277.18 120.321 273.67 124.181 269.84 126.281C269.59 126.341 269.35 126.421 269.09 126.471C266.08 126.911 265.76 124.111 266.19 121.201C267.53 115.681 269.34 110.261 270.57 104.701C271.9 98.6909 273.12 92.5909 273.64 86.4609C274.05 81.5809 270.96 79.4809 266.18 80.4109C261.87 81.2409 258.4 83.6109 255.22 86.4409C247.47 93.3409 241.7 101.841 235.9 110.311C235.3 111.191 234.7 112.071 234.1 112.951C234.33 110.921 235.08 109.211 235.71 107.461C238.51 99.7909 241.29 92.1209 244.05 84.4409C244.88 82.1309 243.89 80.8409 241.63 80.2809C236.02 78.8909 228.06 83.0709 226.28 88.5309C225.8 89.9909 225.32 91.4609 224.84 92.9209C223.07 94.3109 220.57 95.2009 217.91 95.7509L216.36 107.261C217.64 107.011 219.07 106.861 220.39 106.761C219.32 110.161 218.24 113.561 217.22 116.981C215.46 122.901 214.08 128.961 212.84 135.031C212.47 136.841 212.68 138.361 213.26 139.551L213.22 139.591C213.22 139.591 213.29 139.711 213.4 139.891C213.73 140.461 214.19 140.951 214.73 141.331C216.05 142.401 218.28 143.281 221.54 141.741C222.19 141.461 223.03 140.981 224.12 140.161C224.12 140.161 224.14 140.141 224.15 140.141C224.16 140.131 224.17 140.121 224.19 140.111C227.47 137.591 232.88 131.941 241.28 119.321C242.67 117.461 244.06 115.621 245.47 113.781C248.36 110.051 251.44 106.481 254.46 102.861C254.46 102.861 255.52 101.341 255.65 103.361C254.4 108.441 253.08 113.511 251.98 118.621C250.76 124.231 249.26 129.831 250.39 135.671C251.25 140.101 253.69 142.171 258.23 142.221C264.22 142.281 269.48 140.111 274.2 136.591C276.37 134.971 278.38 133.121 280.68 131.191L282.46 112.161C281.77 113.341 281.06 114.501 280.32 115.611V115.631Z" fill="#040606"/>
<path d="M338.83 134.911L337.29 134.751C329.5 131.851 324.69 122.261 323.24 118.951C321.71 115.261 320.55 111.371 319.43 107.471C319.31 107.021 319.59 106.151 319.97 105.911C338.36 96.1511 338.76 94.2011 338.76 94.2011H338.74C340.38 92.3711 341.42 90.1211 341.98 87.3211C342.51 84.7511 342.9 82.1011 340.62 80.3311C338.27 78.5011 335.66 79.6811 333.58 81.0711C328.51 84.4611 323.3 87.7611 318.72 91.7611C313.47 96.3411 308.84 101.631 303.96 106.601C303.96 106.601 311.97 83.1711 318.54 70.6011C318.81 70.4811 319.07 70.3511 319.36 70.2111L319.44 70.1911L319.58 70.1511L319.71 70.0711C321.2 69.1511 323.21 68.0511 325.94 66.7611L325.98 66.7411L326.02 66.7211C334.8 61.7211 346.88 53.1911 354.55 40.6111V40.6411L356.06 38.0111C361.22 28.9811 362.8 22.1711 362.8 17.2211C362.8 14.2911 362.24 12.0311 361.58 10.3911V10.3411L361.56 10.1911L361.51 10.0511C361.49 9.98107 361.1 8.99108 360.18 7.78108C360.18 7.78108 360.173 7.77774 360.16 7.77107C359.79 7.26107 359.52 6.99109 359.48 6.95109L359.15 6.62107C359.06 6.53107 358.96 6.43107 358.86 6.33107L358.26 5.74107L358.24 5.79109C356.73 4.61109 354.61 3.62107 351.84 3.62107C347.3 3.64107 341.26 6.19108 333.16 14.0011L333.13 14.0311L333.11 14.0611C333.07 14.1211 313.62 35.6811 304.48 62.0411C284.76 68.0211 274.87 61.4111 271.41 58.1011C263.98 50.1811 262.2 41.8611 262.3 35.5011C262.62 31.1811 263.37 27.6111 264.38 24.6711C264.51 24.2711 264.66 23.9311 264.8 23.5611C266.17 20.0111 267.9 17.4311 269.65 15.5711C274.08 11.1611 279.31 10.7311 281.54 10.7811C281.91 10.8011 282.28 10.8111 282.67 10.8611C291.26 13.0011 291.95 18.8711 292 19.7411C292.01 20.0011 292 20.2611 291.99 20.5111C291.37 27.2611 285.55 29.4211 285.55 29.4211C284.6 29.7311 283.73 30.0511 282.98 30.3911H282.94C278.72 32.3111 277.64 34.5311 277.46 36.0611V36.0911C277.44 36.2411 277.44 36.3911 277.44 36.5311V36.5911C277.45 37.3911 277.69 37.9111 277.69 37.9111C278.12 39.3511 279.09 40.0211 280.19 40.3111C280.2 40.3111 280.2 40.3111 280.21 40.3111C281.15 40.5511 282.18 40.4811 283.05 40.3311C283.05 40.3311 283.12 40.3311 283.23 40.3111C283.78 40.2111 284.32 40.0711 284.85 39.9011C285.49 39.7111 286.13 39.4911 286.75 39.2511C286.92 39.1911 287.08 39.1211 287.25 39.0611C287.61 38.9111 287.99 38.7411 288.38 38.5611C288.51 38.5011 288.64 38.4511 288.77 38.3711C291.31 37.1311 294.17 35.2011 296.21 32.2011C296.66 31.5911 297.08 30.9811 297.49 30.3511C298.11 29.3611 298.6 28.3411 299.03 27.3011L299.09 27.2511V27.1911C299.88 25.2311 300.37 23.2011 300.49 21.0811C300.59 19.2611 300.55 17.4511 300.24 15.6811C299.97 14.1911 299.49 12.7911 298.84 11.4511C297.15 8.01109 294.48 5.39109 291.24 3.29109C289.85 2.39109 288.24 1.85107 286.59 1.40107C283.82 0.641073 280.96 0.571093 278.03 0.921093C276.35 1.12109 274.71 1.46107 273.11 2.08107C271.79 2.58107 270.47 3.07107 269.24 3.77107C267.98 4.48107 266.84 5.34109 265.72 6.23109C265.44 6.45109 265.18 6.68107 264.92 6.90107L264.85 6.95109L264.81 6.99107C263.24 8.35107 261.82 9.83107 260.65 11.5211C259.1 13.7711 257.53 16.0111 256.36 18.4511C255.71 19.8211 255.22 21.2211 254.81 22.6411C254.31 24.4411 253.79 26.2311 253.32 28.0411C252.79 30.0511 252.62 32.1011 252.5 34.1311C252.31 37.2611 252.42 40.3611 252.93 43.4111C252.93 43.4111 253.8 61.3811 267.06 71.2411C268.05 72.0711 269.11 72.8611 270.3 73.5611C273.29 75.3011 276.93 76.5311 281.31 77.0411C282.75 77.2111 284.28 77.2911 285.88 77.2911C289.14 77.2911 292.76 76.9311 296.77 76.1511C295.91 79.3511 292.45 91.6511 286.99 103.471C285.61 106.461 284.09 109.411 282.46 112.191L280.68 131.221C280.5 132.911 280.32 134.241 280.24 135.581C280.08 138.101 280.91 140.241 283.18 141.511C285.58 142.871 287.97 142.461 289.9 140.611C292.3 138.321 294.61 135.891 296.7 133.331C300.08 129.191 303.25 124.871 306.52 120.641C307.01 122.231 307.58 123.781 308.24 125.311C308.47 125.961 308.7 126.631 308.94 127.271C309.9 129.171 311.06 130.981 312.39 132.641C317.98 140.311 325.13 143.601 329.92 145.021C329.92 145.021 330.1 145.081 330.34 145.141C330.4 145.151 330.45 145.171 330.52 145.191C330.69 145.241 330.91 145.291 331.15 145.351C332.24 145.621 333.18 145.801 333.86 145.911C338.47 146.691 346.3 147.171 352.98 143.541C353.89 143.111 354.8 142.631 355.69 142.071V142.031C348.43 141.231 343.03 138.481 338.79 134.881C338.79 134.881 338.8 134.901 338.81 134.911H338.83ZM331.44 35.5011C333.96 31.4111 336.67 27.5211 339.29 24.6611C341.88 21.8011 344.43 20.0511 346.29 19.9011H346.33C346.52 19.9111 347 20.0011 347.32 20.2611C347.65 20.5211 347.97 20.8711 347.99 21.9611C348 23.0911 347.52 25.0111 345.94 27.9111L345.92 27.9311V27.9511L345.84 28.0911C345.08 29.5411 338.47 41.6311 321.43 54.2511C323.48 49.9111 327.19 42.4111 331.43 35.5011H331.44Z" fill="#040606"/>
<path d="M384.44 112.841C383.24 114.661 381.84 116.601 380.26 118.491C380.2 118.561 380.14 118.631 380.08 118.701C379.67 119.181 379.26 119.651 378.83 120.101C378.83 120.111 378.81 120.121 378.81 120.131C376.6 122.531 374.09 124.731 371.33 126.361C370.86 126.641 370.38 126.911 369.9 127.161C369.85 127.181 369.81 127.211 369.76 127.241C369.72 127.261 369.68 127.271 369.63 127.291C368.32 127.961 367.08 128.451 365.96 128.781C360.01 130.711 356.58 129.241 354.96 128.041C354.87 127.991 354.8 127.921 354.71 127.861C354.07 127.341 353.78 126.921 353.78 126.921C352.6 125.381 352.04 123.111 352.16 120.121C352.16 120.041 352.21 119.961 352.27 119.801C352.53 119.681 352.61 119.611 352.69 119.611C353.32 119.581 353.95 119.571 354.58 119.531C363.12 118.961 371.05 116.721 377.59 110.881C384.04 105.141 386.79 97.9011 385.69 89.3511C384.7 81.6911 377.65 77.571 368.96 79.251C360.01 80.991 353.18 85.981 347.7 92.991C340.29 102.461 335.78 113.081 336.06 125.281C336.14 129.071 337.14 132.281 338.83 134.891C343.06 138.501 348.47 141.241 355.73 142.041C365.73 142.071 374.35 138.221 381.2 130.391C381.01 123.801 382.5 117.761 384.46 112.841H384.44ZM365.22 92.771C366.49 91.901 368.98 91.4211 370.07 92.1011C371.14 92.7611 371.62 95.201 371.48 96.771C370.8 104.071 362.79 109.881 354.52 109.081C356.66 102.621 359.51 96.711 365.21 92.771H365.22Z" fill="#040606"/>
<path d="M447.11 85.0383C447.13 84.8683 447.13 84.7183 447.11 84.5683L447.13 84.5283C447.1 84.3183 447.03 84.1083 446.94 83.9183C446.94 83.8983 446.93 83.8883 446.92 83.8683C445.84 81.6683 441.16 81.4883 441.16 81.4883C436.12 81.1183 430.3 83.7483 428.43 88.2083C423.99 98.8183 418.03 108.488 410.37 117.078C407.8 119.958 405.06 122.728 401.06 123.698C399.29 124.128 398.34 123.598 398.75 121.708C399.17 119.788 399.61 117.828 400.37 116.028C404.98 105.018 409.7 94.0583 414.35 83.0683C415.43 80.5083 414.74 79.1883 412.12 78.5083C406.72 77.1083 400.15 80.1083 397.87 85.1583C396.87 87.4083 395.84 89.6483 394.81 91.8883C394.09 93.4583 393.38 95.0383 392.67 96.6183C391.74 98.9283 390.8 101.078 389.85 103.078C389.77 103.258 389.69 103.428 389.62 103.598H389.61L389.57 103.648C389.44 103.928 389.31 104.168 389.18 104.438V104.418C389.18 104.418 387.48 108.208 384.44 112.828C382.48 117.748 380.99 123.788 381.18 130.378C380.52 135.038 383.37 137.788 388.33 138.458C394.24 139.248 399.05 136.628 403.47 133.278C407.4 130.288 411.03 126.918 415.21 123.368C411.32 131.628 407.23 139.168 401.82 145.938C393.17 156.778 382.16 161.848 368.16 159.668C364.57 159.108 363.01 160.938 363.46 164.828C364.18 171.078 368.93 175.028 375.88 175.148C384.4 175.298 392.2 172.968 399.3 168.268C408.78 161.988 415.75 153.388 420.82 143.448C425.92 133.438 430.33 123.068 434.94 112.798C447.61 87.3883 447.14 85.0383 447.14 85.0383C447.14 85.0383 447.13 85.0483 447.12 85.0483L447.11 85.0383Z" fill="#040606"/>
</svg>
